<svg width="7" height="13" viewBox="0 0 7 13" fill="none" xmlns="http://www.w3.org/2000/svg">
<path d="M5.09271 2.02078H6.70109C6.84906 2.02078 6.96915 1.90762 6.96915 1.76819V0.252598C6.96915 0.113164 6.84906 0 6.70109 0H5.09271C3.46718 0 2.14402 1.24632 2.14402 2.77858V4.54676H0.267575C0.119604 4.54676 -0.000488281 4.65993 -0.000488281 4.79936V6.31495C-0.000488281 6.45438 0.119604 6.56755 0.267575 6.56755H2.14402V11.8721C2.14402 12.0115 2.26411 12.1247 2.41208 12.1247H4.02046C4.16843 12.1247 4.28852 12.0115 4.28852 11.8721V6.56755H6.16496C6.28023 6.56755 6.38263 6.49783 6.41962 6.39477L6.95575 4.87918C6.98309 4.80239 6.96915 4.71752 6.91876 4.65134C6.86782 4.58566 6.7874 4.54676 6.70109 4.54676H4.28852V2.77858C4.28852 2.36078 4.64933 2.02078 5.09271 2.02078Z" fill="white"/>
</svg>
