<svg width="12" height="12" viewBox="0 0 12 12" fill="none" xmlns="http://www.w3.org/2000/svg">
<path d="M1.48318 2.9671C2.30253 2.9671 2.96673 2.30289 2.96673 1.48355C2.96673 0.664208 2.30253 0 1.48318 0C0.663842 0 -0.000366211 0.664208 -0.000366211 1.48355C-0.000366211 2.30289 0.663842 2.9671 1.48318 2.9671Z" fill="white"/>
<path d="M2.71935 3.95801H0.24677C0.110283 3.95801 -0.000488281 4.06878 -0.000488281 4.20527V11.623C-0.000488281 11.7595 0.110283 11.8703 0.24677 11.8703H2.71935C2.85584 11.8703 2.96661 11.7595 2.96661 11.623V4.20527C2.96661 4.06878 2.85584 3.95801 2.71935 3.95801Z" fill="white"/>
<path d="M10.0871 3.5464C9.03028 3.18442 7.70844 3.50239 6.91573 4.07257C6.88853 3.96625 6.79161 3.88712 6.67638 3.88712H4.2038C4.06731 3.88712 3.95654 3.9979 3.95654 4.13438V11.5521C3.95654 11.6886 4.06731 11.7994 4.2038 11.7994H6.67638C6.81287 11.7994 6.92364 11.6886 6.92364 11.5521V6.22124C7.32321 5.87706 7.838 5.76728 8.25933 5.94629C8.6678 6.11888 8.90171 6.5402 8.90171 7.10148V11.5521C8.90171 11.6886 9.01248 11.7994 9.14897 11.7994H11.6216C11.758 11.7994 11.8688 11.6886 11.8688 11.5521V6.6035C11.8406 4.57153 10.8847 3.81937 10.0871 3.5464Z" fill="white"/>
</svg>
