<svg width="13" height="11" viewBox="0 0 13 11" fill="none" xmlns="http://www.w3.org/2000/svg">
<path d="M12.2197 1.26468C12.1385 1.17289 12.0076 1.14981 11.9002 1.20642C11.8334 1.2416 11.7078 1.28776 11.5587 1.33338C11.7468 1.07616 11.898 0.788169 11.9648 0.529303C11.9937 0.417733 11.9515 0.300117 11.8596 0.233614C11.7677 0.167661 11.6453 0.167661 11.5534 0.233614C11.4086 0.33749 10.7097 0.649668 10.2678 0.750795C9.26908 -0.148913 8.10689 -0.242346 6.89875 0.483136C5.91663 1.07287 5.70289 2.27211 5.74457 3.00309C3.4966 2.7805 2.0993 1.55927 1.31275 0.54854C1.25771 0.47764 1.16901 0.440267 1.08565 0.445763C0.998021 0.452358 0.918939 0.502373 0.874054 0.579867C0.502153 1.22566 0.399025 1.9396 0.57696 2.64474C0.67421 3.02947 0.844131 3.36858 1.0413 3.64338C0.946724 3.59557 0.855352 3.53566 0.769323 3.46421C0.690241 3.39716 0.579632 3.38452 0.486122 3.42904C0.393147 3.47465 0.333835 3.57138 0.333835 3.67746C0.333835 4.88825 1.07016 5.69617 1.75785 6.11827C1.64671 6.10453 1.53076 6.07925 1.41374 6.04242C1.31328 6.01109 1.20428 6.04242 1.13481 6.12376C1.06535 6.20456 1.04878 6.31997 1.09206 6.41835C1.47839 7.29718 2.21044 7.90175 3.11615 8.12104C2.32532 8.59865 1.26679 8.83278 0.2975 8.71791C0.17193 8.69978 0.0522374 8.78167 0.0126962 8.90588C-0.026845 9.03009 0.024986 9.16639 0.135595 9.23015C1.6061 10.0793 2.93554 10.3827 4.08437 10.3827C5.75633 10.3827 7.04676 9.74073 7.83224 9.20377C9.94983 7.7583 11.2697 5.16305 11.0858 2.84096C11.4252 2.58319 11.9328 2.10723 12.2475 1.59554C12.3127 1.49222 12.3009 1.35591 12.2197 1.26468Z" fill="white"/>
</svg>
